HIERARCHY
ROOT Hips
{
  OFFSET -32.5998 29.0326 120.673
  CHANNELS 6 Xposition Yposition Zposition Zrotation Xrotation Yrotation
  JOINT LeftUpLeg
  {
    OFFSET 8.64259 1.95398 -2.38835
    CHANNELS 3 Zrotation Xrotation Yrotation
    JOINT LeftLeg
    {
      OFFSET 43.7702 0 0
      CHANNELS 3 Zrotation Xrotation Yrotation
      JOINT LeftFoot
      {
        OFFSET 40.6238 0 0
        CHANNELS 3 Zrotation Xrotation Yrotation
        JOINT LeftToeBase
        {
          OFFSET 12.7242 0 0
          CHANNELS 3 Zrotation Xrotation Yrotation
          End Site
          {
            OFFSET 0 0 0
          }
        }
      }
    }
  }
  JOINT RightUpLeg
  {
    OFFSET -8.2249 1.95398 -2.59336
    CHANNELS 3 Zrotation Xrotation Yrotation
    JOINT RightLeg
    {
      OFFSET 43.5653 0 0
      CHANNELS 3 Zrotation Xrotation Yrotation
      JOINT RightFoot
      {
        OFFSET 40.6238 0 0
        CHANNELS 3 Zrotation Xrotation Yrotation
        JOINT RightToeBase
        {
          OFFSET 12.7242 0 0
          CHANNELS 3 Zrotation Xrotation Yrotation
          End Site
          {
            OFFSET 0 0 0
          }
        }
      }
    }
  }
  JOINT Spine
  {
    OFFSET 0.165834 0.87714 6.61349
    CHANNELS 3 Zrotation Xrotation Yrotation
    JOINT Spine1
    {
      OFFSET 7.38963 1.71661e-005 0
      CHANNELS 3 Zrotation Xrotation Yrotation
      JOINT Spine2
      {
        OFFSET 11.9445 1.14441e-005 0
        CHANNELS 3 Zrotation Xrotation Yrotation
        JOINT Spine3
        {
          OFFSET 14.7254 4.19617e-005 0
          CHANNELS 3 Zrotation Xrotation Yrotation
          JOINT Spine4
          {
            OFFSET 10.9679 0 0
            CHANNELS 3 Zrotation Xrotation Yrotation
            JOINT RightShoulder
            {
              OFFSET 2.46616 -1.6653 3.69651
              CHANNELS 3 Zrotation Xrotation Yrotation
              JOINT RightArm
              {
                OFFSET 13.0012 0 0
                CHANNELS 3 Zrotation Xrotation Yrotation
                JOINT RightForeArm
                {
                  OFFSET 28.7848 1.62311e-005 0
                  CHANNELS 3 Zrotation Xrotation Yrotation
                  JOINT RightHand
                  {
                    OFFSET 26.5688 1.62095e-005 0
                    CHANNELS 3 Zrotation Xrotation Yrotation
                    End Site
                    {
                      OFFSET 0 0 0
                    }
                  }
                }
              }
            }
            JOINT LeftShoulder
            {
              OFFSET 2.38034 -1.29275 -3.7523
              CHANNELS 3 Zrotation Xrotation Yrotation
              JOINT LeftArm
              {
                OFFSET 16.3182 6.07031e-005 0
                CHANNELS 3 Zrotation Xrotation Yrotation
                JOINT LeftForeArm
                {
                  OFFSET 27.0901 0 0
                  CHANNELS 3 Zrotation Xrotation Yrotation
                  JOINT LeftHand
                  {
                    OFFSET 24.5451 1.51738e-005 0
                    CHANNELS 3 Zrotation Xrotation Yrotation
                    End Site
                    {
                      OFFSET 0 0 0
                    }
                  }
                }
              }
            }
            JOINT Neck
            {
              OFFSET 5.0226 -0.0266342 0
              CHANNELS 3 Zrotation Xrotation Yrotation
              JOINT Head
              {
                OFFSET 6.69364 2.86102e-005 0
                CHANNELS 3 Zrotation Xrotation Yrotation
                End Site
                {
                  OFFSET 0 0 0
                }
              }
            }
          }
        }
      }
    }
  }
}
MOTION
Frames:	12
Frame Time:	0.0416667
23.3536 96.4813 -44.9537 -98.511 -29.0187 -100.396 -173.8 6.27764 79.1183 -38.956 12.1669 -2.95564 77.9344 11.6937 3.5817 13.3367 -10.6844 6.75836 179.959 14.0716 86.4375 -86.4791 -11.9948 -6.54822 64.9918 -1.79881 -3.36071 16.512 3.255 6.53302 1.05623 7.53673 -88.8701 11.7959 2.63208 1.96305 0.126428 2.71589 1.84528 -22.411 1.92059 2.66316 -2.39837 1.9206 2.66315 92.1861 -22.1553 -105.248 53.7448 -19.5328 0.444739 -6.2851 -13.2322 -10.9028 -9.62809 0.0282741 -5.78689 -85.5163 -49.3236 85.373 -6.83219 15.2422 -19.3732 7.7978 -7.96142 -6.54541 0.160451 0.00954937 0.157934 2.09259 3.20163 -4.47426 -11.1375 4.72068 -12.2379 
14.1398 104.418 -39.5102 -103.397 -33.027 -96.0007 -175.182 -3.25811 90.0535 -28.7863 11.9836 1.62637 63.4523 1.70716 1.63267 5.67965 -14.4245 5.60887 -178.404 21.7198 96.8048 -77.8672 -3.70322 -4.66371 70.4598 -4.80306 -4.18959 15.7635 3.78682 5.91311 -0.0352111 7.74678 -90.0262 11.3855 -0.0822758 -0.0431139 -0.285557 -0.0840948 -0.039458 -22.8204 -0.0655159 -0.0658572 -2.80771 -0.0654937 -0.0658609 91.9385 -22.16 -105.804 52.3598 -19.4975 4.85143 -7.01556 -9.70871 -14.6011 -8.54051 0.112741 -7.13841 -85.9256 -42.8799 83.722 -11.1385 21.0295 -22.0376 5.9995 -11.2156 -8.92903 -1.05112 -0.0469895 -1.5511 -10.0683 4.7315 -5.91267 -11.1042 5.60252 -8.05817 
5.86108 107.804 -34.0322 -102.889 -41.6217 -92.9569 -172.188 -5.40174 90.9999 -22.787 4.52835 -0.489717 62.4165 0.867968 -2.47767 7.68113 -12.9236 5.20828 -179.031 28.6173 98.81 -65.3007 -5.7905 -3.23422 72.1098 -5.78249 -3.06351 17.2814 3.37651 5.31416 -1.00531 7.91756 -90.6517 11.028 -2.30318 -1.07591 -0.641246 -2.34832 -0.973456 -23.1845 -1.87336 -1.71847 -3.1719 -1.87337 -1.71847 92.4509 -23.4219 -104.148 51.2942 -16.3017 6.99107 -7.54991 -8.67712 -14.8374 -7.88286 0.132606 -7.61237 -87.0658 -35.9631 80.4081 -11.5784 26.3455 -33.9552 4.88467 -8.50461 -2.58153 0.0354742 -0.0744747 -3.60519 -9.78899 3.68743 -10.0897 -12.1533 4.52392 -3.45188 
-2.44154 106.211 -28.4383 -101.793 -49.2954 -89.3927 -171.512 -4.64795 92.7368 -16.5939 7.57516 -1.48814 60.2096 -0.828546 -7.23128 16.965 -10.4696 9.7065 -179.978 29.2308 99.4091 -46.7498 -11.9008 -1.26162 72.4013 -7.08323 -3.56822 21.2994 1.7911 5.07574 -1.73141 8.06417 -91.2589 10.7061 -4.02783 -2.13246 -0.959998 -4.11776 -1.95293 -23.5157 -3.20096 -3.2447 -3.5031 -3.20095 -3.2447 92.3006 -26.0231 -103.5 48.8018 -14.6093 8.85614 -7.14227 -8.2949 -12.9588 -7.33854 0.144192 -8.08622 -88.2151 -38.7779 79.0548 -4.8196 27.4222 -44.0055 3.32844 -7.47913 0.191386 1.54422 -0.0332706 -3.18837 -5.5402 1.81755 -12.9187 -14.192 3.10553 -0.921202 
-11.7033 100.444 -23.1892 -101.679 -54.9799 -86.8753 -170.671 -5.00036 96.4375 -24.1634 11.6833 0.582429 78.6288 10.0208 -4.37317 11.2722 -9.39716 2.66339 179.935 29.8316 100.94 -31.116 -12.5456 0.607596 71.0192 -6.80569 -3.00083 22.4621 1.43501 4.68486 -1.99378 8.30898 -91.5163 10.1961 -4.6639 -2.61056 -1.46868 -4.77424 -2.4025 -24.028 -3.66414 -3.89188 -4.01538 -3.66417 -3.89188 92.6392 -28.8925 -101.868 47.4151 -14.8269 9.84061 -7.38316 -9.49403 -13.4873 -5.78521 0.146559 -8.87387 -89.2189 -40.2047 77.7053 -3.29905 27.1346 -51.8031 2.84547 -2.27266 0.282544 -0.338188 -0.0437936 -3.3232 -1.91074 -0.140991 -17.8893 -12.9466 2.02342 0.633918 
-22.1961 95.4811 -15.9517 -105.273 -54.3777 -91.5493 -165.91 -22.0115 99.0742 -16.4349 10.7272 0.476019 94.753 19.4334 -8.94108 14.9114 -11.288 9.02582 -179.904 27.2267 101.363 -22.8804 -10.4171 1.08926 68.5037 -4.82466 -2.08877 23.2823 1.16487 4.45533 -2.07253 8.59385 -91.0096 9.6585 -4.58819 -1.64829 -2.00508 -4.6563 -1.44439 -24.582 -3.8806 -2.95237 -4.56936 -3.88059 -2.95237 93.6375 -32.1232 -98.9118 44.9946 -13.5399 6.94147 -7.80613 -14.7816 -11.642 -7.72099 0.0289814 -6.01877 -90.0864 -41.5161 76.5975 -12.8195 25.7294 -44.97 7.45157 11.8212 -5.31136 -2.1218 -0.086503 -2.16737 -0.339344 0.311836 -21.4719 -10.7891 3.27038 -0.0976765 
-33.1735 93.3854 -5.53845 -101.211 -52.2903 -88.0384 -162.565 -27.3659 102.509 -15.7844 12.5771 -0.206706 82.5571 13.998 -2.15552 34.3886 -1.58868 10.7636 179.451 25.6199 103.362 -23.166 -5.21713 2.47501 68.2178 -4.30426 -1.71986 22.4729 1.71358 3.76375 -1.87061 7.95054 -91.1207 10.94 -4.2427 -1.82768 -0.725016 -4.31902 -1.63892 -23.2906 -3.49734 -3.01908 -3.27791 -3.49735 -3.01909 92.7295 -31.3819 -100.9 46.1729 -9.49117 10.212 -7.91016 -5.51734 -11.4732 -5.17273 0.11488 -8.67073 -90.1849 -45.0913 77.328 -16.0477 32.3675 -37.5675 4.92886 16.1406 -2.72979 -2.58952 -0.0943894 -2.33539 -0.252647 0.448907 -18.5519 -10.3438 3.07247 -1.04386 
-42.4567 92.094 4.46921 -100.336 -52.9003 -89.3009 -165.198 -21.777 101.155 -34.828 15.6242 2.03867 66.1251 3.51082 -1.60247 38.7661 0.992621 9.17598 175.65 28.9427 102.107 -40.5272 -1.78664 3.99791 64.8896 -0.0308534 -2.1501 16.0276 4.78024 2.99121 -1.50102 7.85266 -91.3356 11.1278 -3.60754 -2.30759 -0.539903 -3.70557 -2.14649 -23.0839 -2.74755 -3.28499 -3.07125 -2.74758 -3.285 91.7162 -30.1409 -103.29 42.9953 -13.7428 6.014 -5.22158 -6.61554 -5.61951 -6.30601 0.130068 -8.25876 -90.0868 -46.2562 77.7552 -19.4807 36.2368 -30.6881 2.07503 4.66752 -0.239781 -0.816993 -0.0172857 -2.20764 13.2751 -1.52586 -9.72432 -13.4268 1.02605 -0.838877 
-49.8992 91.1719 12.0937 -99.9781 -51.1231 -90.1802 -169.349 -0.553374 101.253 -69.643 24.2093 3.40139 60.0112 -0.845716 0.36255 5.3178 -12.862 3.41218 173.667 26.9395 103.209 -52.0929 -4.66782 3.61152 74.2168 -7.81557 -4.11225 19.1994 3.85389 1.59864 -0.348526 7.9467 -91.3122 10.9552 -1.30141 -2.49036 -0.717459 -1.4097 -2.43073 -23.2338 -0.493206 -2.76613 -3.22114 -0.493209 -2.76614 91.7883 -26.3394 -104.506 42.1303 -18.1796 -1.38735 -4.97114 -9.02911 -6.7953 -5.86874 0.127241 -8.53353 -90.1066 -49.4373 78.4498 -15.8301 30.7505 -23.1394 4.34053 4.37731 -0.879821 1.18261 0.038514 -0.9144 20.4485 -1.36905 2.76845 -10.6377 -1.93945 -3.18655 
-56.5882 95.2134 18.8279 -100.752 -51.4869 -95.9629 -173.269 17.1651 93.7214 -84.0182 17.2375 3.36683 64.8761 1.85151 3.19252 3.12717 -13.3463 2.27833 172.814 16.1166 97.4787 -44.9894 -7.61747 3.0436 74.4307 -9.07687 -5.54976 21.5838 2.35507 2.95042 0.915 7.86465 -90.4083 11.1559 1.63103 -0.976154 -0.514492 1.5865 -1.047 -23.0568 1.849 -0.44071 -3.04419 1.849 -0.440718 92.8687 -20.3653 -104.427 46.2445 -27.3626 -5.49788 -7.26671 -15.7295 -14.9606 -2.26869 0.040615 -9.9733 -89.1349 -51.7535 80.3641 -11.5785 20.6171 -19.0525 7.31357 2.90222 -1.39315 1.4222 0.0808782 0.925635 15.7719 -3.72816 5.56683 -10.552 -4.67668 -7.78236 
-63.7197 102.893 25.9071 -102.056 -47.9339 -102.699 -172.745 26.3393 85.9397 -73.6105 7.03401 1.13662 71.4342 5.09441 1.61618 3.0369 -15.3184 4.84418 174.177 3.50127 91.2452 -30.4662 -11.6566 -0.858482 60.778 0.869401 -2.1952 22.3411 1.38559 5.00791 1.93411 7.99906 -89.2254 10.8583 4.20887 1.14645 -0.806138 4.25524 0.959785 -23.3812 3.66957 2.35975 -3.3686 3.66957 2.35973 93.5051 -18.8749 -103.511 45.7982 -37.5525 -11.6549 -6.99772 -20.6252 -16.89 -1.78852 0.0325617 -10.9742 -88.2294 -51.2067 81.6005 -9.26254 18.0263 -11.2021 12.1127 8.14268 -14.358 -3.7473 -0.150845 0.654193 10.6857 -5.83429 -0.118608 -11.5923 -4.88444 -11.1939 
-70.2964 105.916 32.773 -98.7858 -43.1823 -102.394 -174.411 32.307 83.2584 -59.0593 7.36657 -0.44558 76.3248 8.23069 -0.852112 4.67312 -15.7524 6.69036 175.717 0.685295 90.0506 -28.2398 -22.703 -4.30212 59.6891 1.3926 -0.767406 20.2097 2.51146 4.26277 2.37382 7.95683 -88.6787 10.91 5.33697 2.12509 -0.751358 5.4253 1.88757 -23.3382 4.45159 3.63266 -3.3256 4.45157 3.63264 91.7354 -16.5507 -108.941 44.7182 -42.0718 -15.0702 -7.09358 -20.3591 -18.3885 -3.83938 0.0859168 -9.4903 -88.3578 -50.2249 81.2269 -8.49866 26.6087 -2.79399 9.0973 -0.22755 -19.3306 -2.51369 -0.094845 -0.516579 10.3996 -5.10229 0.192491 -11.2916 -4.07699 -14.0544 
